<mxfile host="Electron" modified="2024-07-30T19:34:23.130Z" agent="Mozilla/5.0 (Windows NT 10.0; Win64; x64) AppleWebKit/537.36 (KHTML, like Gecko) draw.io/22.1.16 Chrome/120.0.6099.109 Electron/28.1.0 Safari/537.36" etag="sf4tWWegO8GBcouc_Yo8" version="22.1.16" type="device">
  <diagram name="Page 1" id="Page-1">
    <mxGraphModel dx="1418" dy="940" grid="1" gridSize="10" guides="1" tooltips="1" connect="1" arrows="1" fold="1" page="1" pageScale="1" pageWidth="1200" pageHeight="500" math="0" shadow="0">
      <root>
        <mxCell id="0" />
        <mxCell id="1" parent="0" />
        <UserObject label="" tags="Background" id="2">
          <mxCell style="vsdxID=10;fillColor=#ffffff;gradientColor=none;shape=stencil(rVFBDsIwDHtNj5VCK14wxj8ilm0VZZ3SAuX3tAoIBhwQ4mbHjhMlyjZxxJmUgZg47OnsujQqu1HGuGkkdqkgZVtlmz4wDRyOUyd8xuqs6BBONSFLH9QOAxdha6FbcSLvisR5oQEvvfegFXyMgqwxu6g5JEwuTIupHnkgXcbo3uNwyxEpnonmt/Ivi/1nLfhirQIeZ+6d9/KlZ/31LaUkL7XtFQ==);strokeColor=#000000;points=[[0.5,0,0],[0.5,0.5,0],[0.5,0.5,0],[0.5,0.5,0],[1,0.5,0],[0.15,0.85,0],[0.85,0.85,0],[0.85,0.15,0],[0.15,0.15,0]];labelBackgroundColor=none;rounded=0;html=1;whiteSpace=wrap;" parent="1" vertex="1">
            <mxGeometry x="40" y="75" width="17" height="17" as="geometry" />
          </mxCell>
        </UserObject>
        <UserObject label="" tags="Background" id="3">
          <mxCell style="vsdxID=26;fillColor=#000000;gradientColor=none;shape=stencil(rVFBDsIwDHtNj5VCK14wxj8ilm0VZZ3SAuX3tAoIBhwQ4mbHjhMlyjZxxJmUgZg47OnsujQqu1HGuGkkdqkgZVtlmz4wDRyOUyd8xuqs6BBONSFLH9QOAxdha6FbcSLvisR5oQEvvfegFXyMgqwxu6g5JEwuTIupHnkgXcbo3uNwyxEpnonmt/Ivi/1nLfhirQIeZ+6d9/KlZ/31LaUkL7XtFQ==);strokeColor=#000000;points=[[0.5,0,0],[0.5,0.5,0],[0.5,0.5,0],[0.5,0.5,0],[1,0.5,0],[0.15,0.85,0],[0.85,0.85,0],[0.85,0.15,0],[0.15,0.15,0]];labelBackgroundColor=none;rounded=0;html=1;whiteSpace=wrap;" parent="1" vertex="1">
            <mxGeometry x="1123" y="75" width="17" height="17" as="geometry" />
          </mxCell>
        </UserObject>
        <UserObject label="&lt;div style=&quot;font-size: 1px&quot;&gt;&lt;font style=&quot;font-size:14.11px;font-family:Calibri;color:#000000;direction:ltr;letter-spacing:0px;line-height:120%;opacity:1&quot;&gt;%&lt;br/&gt;&lt;/font&gt;&lt;/div&gt;" tags="Background" id="4">
          <mxCell style="verticalAlign=middle;align=center;overflow=width;vsdxID=28;shape=stencil(nZE9DsIwDIVP4xWliRiYS7kAJ4iIIRYhqdxQfk5PWhepdGBoJvu9z7b0AqbuvG0RtOoypys+yGUPZg9aU/TIlEsFpgFTnxPjhdM9OulbW0itRgWdzFQDrZXl05HeOGnVZvfztgLJllvqh+tPYZVYr2lSSX8QNFCcoV9zFfwHXQkuzpdizEeSoxAk3rm/zLNI8hem+QA=);points=[[1,0.5,0],[0.5,0,0],[0.5,0.5,0],[0.5,0.5,0]];labelBackgroundColor=none;rounded=1;html=1;whiteSpace=wrap;" parent="1" vertex="1">
            <mxGeometry x="88" y="65" width="43" height="37" as="geometry" />
          </mxCell>
        </UserObject>
        <UserObject label="&lt;div style=&quot;font-size: 1px&quot;&gt;&lt;font style=&quot;font-size:14.11px;font-family:Calibri;color:#000000;direction:ltr;letter-spacing:0px;line-height:120%;opacity:1&quot;&gt;\d&lt;br/&gt;&lt;/font&gt;&lt;/div&gt;" tags="Background" id="5">
          <mxCell style="verticalAlign=middle;align=center;overflow=width;vsdxID=51;shape=stencil(nZE9DsIwDIVP4xWliRiYS7kAJ4iIIRYhqdxQfk5PWhepdGBoJvu9z7b0AqbuvG0RtOoypys+yGUPZg9aU/TIlEsFpgFTnxPjhdM9OulbW0itRgWdzFQDrZXl05HeOGnVZvfztgLJllvqh+tPYZVYr2lSSX8QNFCcoV9zFfwHXQkuzpdizEeSoxAk3rm/zLNI8hem+QA=);points=[[1,0.5,0],[0.5,0,0],[0.5,0.5,0],[0.5,0.5,0]];labelBackgroundColor=none;rounded=1;html=1;whiteSpace=wrap;" parent="1" vertex="1">
            <mxGeometry x="499" y="141" width="43" height="37" as="geometry" />
          </mxCell>
        </UserObject>
        <UserObject label="&lt;div style=&quot;font-size: 1px&quot;&gt;&lt;font style=&quot;font-size:14.11px;font-family:Calibri;color:#000000;direction:ltr;letter-spacing:0px;line-height:120%;opacity:1&quot;&gt;-&lt;br/&gt;&lt;/font&gt;&lt;/div&gt;" tags="Background" id="6">
          <mxCell style="verticalAlign=middle;align=center;overflow=width;vsdxID=53;shape=stencil(nZE9DsIwDIVP4xWliRiYS7kAJ4iIIRYhqdxQfk5PWhepdGBoJvu9z7b0AqbuvG0RtOoypys+yGUPZg9aU/TIlEsFpgFTnxPjhdM9OulbW0itRgWdzFQDrZXl05HeOGnVZvfztgLJllvqh+tPYZVYr2lSSX8QNFCcoV9zFfwHXQkuzpdizEeSoxAk3rm/zLNI8hem+QA=);points=[[1,0.5,0],[0.5,0,0],[0.5,0.5,0],[0.5,0.5,0]];labelBackgroundColor=none;rounded=1;html=1;whiteSpace=wrap;" parent="1" vertex="1">
            <mxGeometry x="380" y="143" width="43" height="37" as="geometry" />
          </mxCell>
        </UserObject>
        <UserObject label="&lt;div style=&quot;font-size: 1px&quot;&gt;&lt;font style=&quot;font-size:14.11px;font-family:Calibri;color:#000000;direction:ltr;letter-spacing:0px;line-height:120%;opacity:1&quot;&gt;+&lt;br/&gt;&lt;/font&gt;&lt;/div&gt;" tags="Background" id="7">
          <mxCell style="verticalAlign=middle;align=center;overflow=width;vsdxID=54;shape=stencil(nZE9DsIwDIVP4xWliRiYS7kAJ4iIIRYhqdxQfk5PWhepdGBoJvu9z7b0AqbuvG0RtOoypys+yGUPZg9aU/TIlEsFpgFTnxPjhdM9OulbW0itRgWdzFQDrZXl05HeOGnVZvfztgLJllvqh+tPYZVYr2lSSX8QNFCcoV9zFfwHXQkuzpdizEeSoxAk3rm/zLNI8hem+QA=);points=[[1,0.5,0],[0.5,0,0],[0.5,0.5,0],[0.5,0.5,0]];labelBackgroundColor=none;rounded=1;html=1;whiteSpace=wrap;" parent="1" vertex="1">
            <mxGeometry x="380" y="203" width="43" height="37" as="geometry" />
          </mxCell>
        </UserObject>
        <UserObject label="&lt;div style=&quot;font-size: 1px&quot;&gt;&lt;font style=&quot;font-size:8.47px;font-family:Calibri;color:#000000;direction:ltr;letter-spacing:0px;line-height:120%;opacity:1&quot;&gt; &lt;br/&gt;(space)&lt;br/&gt;&lt;/font&gt;&lt;/div&gt;" tags="Background" id="8">
          <mxCell style="verticalAlign=middle;align=center;overflow=width;vsdxID=55;shape=stencil(nZE9DsIwDIVP4xWliRiYS7kAJ4iIIRYhqdxQfk5PWhepdGBoJvu9z7b0AqbuvG0RtOoypys+yGUPZg9aU/TIlEsFpgFTnxPjhdM9OulbW0itRgWdzFQDrZXl05HeOGnVZvfztgLJllvqh+tPYZVYr2lSSX8QNFCcoV9zFfwHXQkuzpdizEeSoxAk3rm/zLNI8hem+QA=);points=[[1,0.5,0],[0.5,0,0],[0.5,0.5,0],[0.5,0.5,0]];labelBackgroundColor=none;rounded=1;html=1;whiteSpace=wrap;" parent="1" vertex="1">
            <mxGeometry x="381" y="270" width="43" height="37" as="geometry" />
          </mxCell>
        </UserObject>
        <UserObject label="&lt;div style=&quot;font-size: 1px&quot;&gt;&lt;font style=&quot;font-size:14.11px;font-family:Calibri;color:#000000;direction:ltr;letter-spacing:0px;line-height:120%;opacity:1&quot;&gt;0&lt;br/&gt;&lt;/font&gt;&lt;/div&gt;" tags="Background" id="9">
          <mxCell style="verticalAlign=middle;align=center;overflow=width;vsdxID=57;shape=stencil(nZE9DsIwDIVP4xWliRiYS7kAJ4iIIRYhqdxQfk5PWhepdGBoJvu9z7b0AqbuvG0RtOoypys+yGUPZg9aU/TIlEsFpgFTnxPjhdM9OulbW0itRgWdzFQDrZXl05HeOGnVZvfztgLJllvqh+tPYZVYr2lSSX8QNFCcoV9zFfwHXQkuzpdizEeSoxAk3rm/zLNI8hem+QA=);points=[[1,0.5,0],[0.5,0,0],[0.5,0.5,0],[0.5,0.5,0]];labelBackgroundColor=none;rounded=1;html=1;whiteSpace=wrap;" parent="1" vertex="1">
            <mxGeometry x="381" y="315" width="43" height="37" as="geometry" />
          </mxCell>
        </UserObject>
        <UserObject label="&lt;div style=&quot;font-size: 1px&quot;&gt;&lt;font style=&quot;font-size:14.11px;font-family:Calibri;color:#000000;direction:ltr;letter-spacing:0px;line-height:120%;opacity:1&quot;&gt;#&lt;br/&gt;&lt;/font&gt;&lt;/div&gt;" tags="Background" id="10">
          <mxCell style="verticalAlign=middle;align=center;overflow=width;vsdxID=58;shape=stencil(nZE9DsIwDIVP4xWliRiYS7kAJ4iIIRYhqdxQfk5PWhepdGBoJvu9z7b0AqbuvG0RtOoypys+yGUPZg9aU/TIlEsFpgFTnxPjhdM9OulbW0itRgWdzFQDrZXl05HeOGnVZvfztgLJllvqh+tPYZVYr2lSSX8QNFCcoV9zFfwHXQkuzpdizEeSoxAk3rm/zLNI8hem+QA=);points=[[1,0.5,0],[0.5,0,0],[0.5,0.5,0],[0.5,0.5,0]];labelBackgroundColor=none;rounded=1;html=1;whiteSpace=wrap;" parent="1" vertex="1">
            <mxGeometry x="380" y="408" width="43" height="37" as="geometry" />
          </mxCell>
        </UserObject>
        <UserObject label="&lt;div style=&quot;font-size: 1px&quot;&gt;&lt;font style=&quot;font-size:14.11px;font-family:Calibri;color:#000000;direction:ltr;letter-spacing:0px;line-height:120%;opacity:1&quot;&gt;$&lt;br/&gt;&lt;/font&gt;&lt;/div&gt;" tags="Background" id="11">
          <mxCell style="verticalAlign=middle;align=center;overflow=width;vsdxID=60;shape=stencil(nZE9DsIwDIVP4xWliRiYS7kAJ4iIIRYhqdxQfk5PWhepdGBoJvu9z7b0AqbuvG0RtOoypys+yGUPZg9aU/TIlEsFpgFTnxPjhdM9OulbW0itRgWdzFQDrZXl05HeOGnVZvfztgLJllvqh+tPYZVYr2lSSX8QNFCcoV9zFfwHXQkuzpdizEeSoxAk3rm/zLNI8hem+QA=);points=[[1,0.5,0],[0.5,0,0],[0.5,0.5,0],[0.5,0.5,0]];labelBackgroundColor=none;rounded=1;html=1;whiteSpace=wrap;" parent="1" vertex="1">
            <mxGeometry x="240" y="143" width="43" height="37" as="geometry" />
          </mxCell>
        </UserObject>
        <UserObject label="&lt;div style=&quot;font-size: 1px&quot;&gt;&lt;font style=&quot;font-size:14.11px;font-family:Calibri;color:#000000;direction:ltr;letter-spacing:0px;line-height:120%;opacity:1&quot;&gt;\d&lt;br/&gt;&lt;/font&gt;&lt;/div&gt;" tags="Background" id="12">
          <mxCell style="verticalAlign=middle;align=center;overflow=width;vsdxID=61;shape=stencil(nZE9DsIwDIVP4xWliRiYS7kAJ4iIIRYhqdxQfk5PWhepdGBoJvu9z7b0AqbuvG0RtOoypys+yGUPZg9aU/TIlEsFpgFTnxPjhdM9OulbW0itRgWdzFQDrZXl05HeOGnVZvfztgLJllvqh+tPYZVYr2lSSX8QNFCcoV9zFfwHXQkuzpdizEeSoxAk3rm/zLNI8hem+QA=);points=[[1,0.5,0],[0.5,0,0],[0.5,0.5,0],[0.5,0.5,0]];labelBackgroundColor=none;rounded=1;html=1;whiteSpace=wrap;" parent="1" vertex="1">
            <mxGeometry x="180" y="143" width="43" height="37" as="geometry" />
          </mxCell>
        </UserObject>
        <UserObject label="&lt;div style=&quot;font-size: 1px&quot;&gt;&lt;font style=&quot;font-size:14.11px;font-family:Calibri;color:#000000;direction:ltr;letter-spacing:0px;line-height:120%;opacity:1&quot;&gt;*&lt;br/&gt;&lt;/font&gt;&lt;/div&gt;" tags="Background" id="13">
          <mxCell style="verticalAlign=middle;align=center;overflow=width;vsdxID=75;shape=stencil(nZE9DsIwDIVP4xWliRiYS7kAJ4iIIRYhqdxQfk5PWhepdGBoJvu9z7b0AqbuvG0RtOoypys+yGUPZg9aU/TIlEsFpgFTnxPjhdM9OulbW0itRgWdzFQDrZXl05HeOGnVZvfztgLJllvqh+tPYZVYr2lSSX8QNFCcoV9zFfwHXQkuzpdizEeSoxAk3rm/zLNI8hem+QA=);points=[[1,0.5,0],[0.5,0,0],[0.5,0.5,0],[0.5,0.5,0]];labelBackgroundColor=none;rounded=1;html=1;whiteSpace=wrap;" parent="1" vertex="1">
            <mxGeometry x="499" y="188" width="43" height="37" as="geometry" />
          </mxCell>
        </UserObject>
        <UserObject label="&lt;div style=&quot;font-size: 1px&quot;&gt;&lt;font style=&quot;font-size:14.11px;font-family:Calibri;color:#000000;direction:ltr;letter-spacing:0px;line-height:120%;opacity:1&quot;&gt;.&lt;br/&gt;&lt;/font&gt;&lt;/div&gt;" tags="Background" id="14">
          <mxCell style="verticalAlign=middle;align=center;overflow=width;vsdxID=82;shape=stencil(nZE9DsIwDIVP4xWliRiYS7kAJ4iIIRYhqdxQfk5PWhepdGBoJvu9z7b0AqbuvG0RtOoypys+yGUPZg9aU/TIlEsFpgFTnxPjhdM9OulbW0itRgWdzFQDrZXl05HeOGnVZvfztgLJllvqh+tPYZVYr2lSSX8QNFCcoV9zFfwHXQkuzpdizEeSoxAk3rm/zLNI8hem+QA=);points=[[1,0.5,0],[0.5,0,0],[0.5,0.5,0],[0.5,0.5,0]];labelBackgroundColor=none;rounded=1;html=1;whiteSpace=wrap;" parent="1" vertex="1">
            <mxGeometry x="617" y="143" width="43" height="37" as="geometry" />
          </mxCell>
        </UserObject>
        <UserObject label="&lt;div style=&quot;font-size: 1px&quot;&gt;&lt;font style=&quot;font-size:14.11px;font-family:Calibri;color:#000000;direction:ltr;letter-spacing:0px;line-height:120%;opacity:1&quot;&gt;\d&lt;br/&gt;&lt;/font&gt;&lt;/div&gt;" tags="Background" id="15">
          <mxCell style="verticalAlign=middle;align=center;overflow=width;vsdxID=83;shape=stencil(nZE9DsIwDIVP4xWliRiYS7kAJ4iIIRYhqdxQfk5PWhepdGBoJvu9z7b0AqbuvG0RtOoypys+yGUPZg9aU/TIlEsFpgFTnxPjhdM9OulbW0itRgWdzFQDrZXl05HeOGnVZvfztgLJllvqh+tPYZVYr2lSSX8QNFCcoV9zFfwHXQkuzpdizEeSoxAk3rm/zLNI8hem+QA=);points=[[1,0.5,0],[0.5,0,0],[0.5,0.5,0],[0.5,0.5,0]];labelBackgroundColor=none;rounded=1;html=1;whiteSpace=wrap;" parent="1" vertex="1">
            <mxGeometry x="697" y="143" width="43" height="37" as="geometry" />
          </mxCell>
        </UserObject>
        <UserObject label="&lt;div style=&quot;font-size: 1px&quot;&gt;&lt;font style=&quot;font-size:14.11px;font-family:Calibri;color:#000000;direction:ltr;letter-spacing:0px;line-height:120%;opacity:1&quot;&gt;*&lt;br/&gt;&lt;/font&gt;&lt;/div&gt;" tags="Background" id="16">
          <mxCell style="verticalAlign=middle;align=center;overflow=width;vsdxID=84;shape=stencil(nZE9DsIwDIVP4xWliRiYS7kAJ4iIIRYhqdxQfk5PWhepdGBoJvu9z7b0AqbuvG0RtOoypys+yGUPZg9aU/TIlEsFpgFTnxPjhdM9OulbW0itRgWdzFQDrZXl05HeOGnVZvfztgLJllvqh+tPYZVYr2lSSX8QNFCcoV9zFfwHXQkuzpdizEeSoxAk3rm/zLNI8hem+QA=);points=[[1,0.5,0],[0.5,0,0],[0.5,0.5,0],[0.5,0.5,0]];labelBackgroundColor=none;rounded=1;html=1;whiteSpace=wrap;" parent="1" vertex="1">
            <mxGeometry x="696" y="190" width="43" height="37" as="geometry" />
          </mxCell>
        </UserObject>
        <UserObject label="&lt;div style=&quot;font-size: 1px&quot;&gt;&lt;font style=&quot;font-size:14.11px;font-family:Calibri;color:#000000;direction:ltr;letter-spacing:0px;line-height:120%;opacity:1&quot;&gt;0..9&lt;br/&gt;&lt;/font&gt;&lt;/div&gt;" tags="Background" id="17">
          <mxCell style="verticalAlign=middle;align=center;overflow=width;vsdxID=95;shape=stencil(nZE9DsIwDIVP4xWliRiYS7kAJ4iIIRYhqdxQfk5PWhepdGBoJvu9z7b0AqbuvG0RtOoypys+yGUPZg9aU/TIlEsFpgFTnxPjhdM9OulbW0itRgWdzFQDrZXl05HeOGnVZvfztgLJllvqh+tPYZVYr2lSSX8QNFCcoV9zFfwHXQkuzpdizEeSoxAk3rm/zLNI8hem+QA=);points=[[1,0.5,0],[0.5,0,0],[0.5,0.5,0],[0.5,0.5,0]];labelBackgroundColor=none;rounded=1;html=1;whiteSpace=wrap;" parent="1" vertex="1">
            <mxGeometry x="206" y="235" width="43" height="37" as="geometry" />
          </mxCell>
        </UserObject>
        <UserObject label="&lt;div style=&quot;font-size: 1px&quot;&gt;&lt;font style=&quot;font-size:14.11px;font-family:Calibri;color:#000000;direction:ltr;letter-spacing:0px;line-height:120%;opacity:1&quot;&gt;1..9&lt;br/&gt;&lt;/font&gt;&lt;/div&gt;" tags="Background" id="18">
          <mxCell style="verticalAlign=middle;align=center;overflow=width;vsdxID=96;shape=stencil(nZE9DsIwDIVP4xWliRiYS7kAJ4iIIRYhqdxQfk5PWhepdGBoJvu9z7b0AqbuvG0RtOoypys+yGUPZg9aU/TIlEsFpgFTnxPjhdM9OulbW0itRgWdzFQDrZXl05HeOGnVZvfztgLJllvqh+tPYZVYr2lSSX8QNFCcoV9zFfwHXQkuzpdizEeSoxAk3rm/zLNI8hem+QA=);points=[[1,0.5,0],[0.5,0,0],[0.5,0.5,0],[0.5,0.5,0]];labelBackgroundColor=none;rounded=1;html=1;whiteSpace=wrap;" parent="1" vertex="1">
            <mxGeometry x="136" y="235" width="43" height="37" as="geometry" />
          </mxCell>
        </UserObject>
        <UserObject label="" tags="Background" id="19">
          <mxCell style="vsdxID=99;fillColor=#ffffff;gradientColor=none;shape=stencil(rVFBDsIwDHtNj5VCK14wxj8ilm0VZZ3SAuX3tAoIBhwQ4mbHjhMlyjZxxJmUgZg47OnsujQqu1HGuGkkdqkgZVtlmz4wDRyOUyd8xuqs6BBONSFLH9QOAxdha6FbcSLvisR5oQEvvfegFXyMgqwxu6g5JEwuTIupHnkgXcbo3uNwyxEpnonmt/Ivi/1nLfhirQIeZ+6d9/KlZ/31LaUkL7XtFQ==);strokeColor=#000000;points=[[0.5,0,0],[0.5,0.5,0],[0.5,0.5,0],[0.5,0.5,0],[1,0.5,0],[0.15,0.85,0],[0.85,0.85,0],[0.85,0.15,0],[0.15,0.15,0]];labelBackgroundColor=none;rounded=0;html=1;whiteSpace=wrap;" parent="1" vertex="1">
            <mxGeometry x="91" y="245" width="17" height="17" as="geometry" />
          </mxCell>
        </UserObject>
        <UserObject label="" tags="Background" id="20">
          <mxCell style="vsdxID=101;fillColor=#000000;gradientColor=none;shape=stencil(rVFBDsIwDHtNj5VCK14wxj8ilm0VZZ3SAuX3tAoIBhwQ4mbHjhMlyjZxxJmUgZg47OnsujQqu1HGuGkkdqkgZVtlmz4wDRyOUyd8xuqs6BBONSFLH9QOAxdha6FbcSLvisR5oQEvvfegFXyMgqwxu6g5JEwuTIupHnkgXcbo3uNwyxEpnonmt/Ivi/1nLfhirQIeZ+6d9/KlZ/31LaUkL7XtFQ==);strokeColor=#000000;points=[[0.5,0,0],[0.5,0.5,0],[0.5,0.5,0],[0.5,0.5,0],[1,0.5,0],[0.15,0.85,0],[0.85,0.85,0],[0.85,0.15,0],[0.15,0.15,0]];labelBackgroundColor=none;rounded=0;html=1;whiteSpace=wrap;" parent="1" vertex="1">
            <mxGeometry x="286" y="245" width="17" height="17" as="geometry" />
          </mxCell>
        </UserObject>
        <UserObject label="&lt;div style=&quot;font-size: 1px&quot;&gt;&lt;font style=&quot;font-size:16.93px;font-family:Calibri;color:#000000;direction:ltr;letter-spacing:0px;line-height:120%;opacity:1&quot;&gt;\d&lt;br/&gt;&lt;/font&gt;&lt;/div&gt;" tags="Background" id="21">
          <mxCell style="verticalAlign=middle;align=center;overflow=width;vsdxID=104;fillColor=none;gradientColor=none;shape=stencil(nZBLDoAgDERP0z3SIyjew0SURgSD+Lu9kMZoXLhwN9O+tukAlrNpJg1SzDH4QW/URgNYgZTkjA4UkwJUgGXng+6DX1zLfmoymdXo17xh5zmRJ6Q42BWCfc2oJfdAr+Yv+AP9Cb7OJ3H/2JG1HNGz/84klThPVCc=);strokeColor=none;strokeWidth=2;points=[];labelBackgroundColor=none;rounded=0;html=1;whiteSpace=wrap;" parent="1" vertex="1">
            <mxGeometry x="60" y="240" width="35" height="28" as="geometry" />
          </mxCell>
        </UserObject>
        <UserObject label="&lt;div style=&quot;font-size: 1px&quot;&gt;&lt;font style=&quot;font-size:14.11px;font-family:Calibri;color:#000000;direction:ltr;letter-spacing:0px;line-height:120%;opacity:1&quot;&gt;hh&lt;br/&gt;&lt;/font&gt;&lt;/div&gt;" tags="Background" id="22">
          <mxCell style="verticalAlign=middle;align=center;overflow=width;vsdxID=109;shape=stencil(nZE9DsIwDIVP4xWliRiYS7kAJ4iIIRYhqdxQfk5PWhepdGBoJvu9z7b0AqbuvG0RtOoypys+yGUPZg9aU/TIlEsFpgFTnxPjhdM9OulbW0itRgWdzFQDrZXl05HeOGnVZvfztgLJllvqh+tPYZVYr2lSSX8QNFCcoV9zFfwHXQkuzpdizEeSoxAk3rm/zLNI8hem+QA=);points=[[1,0.5,0],[0.5,0,0],[0.5,0.5,0],[0.5,0.5,0]];labelBackgroundColor=none;rounded=1;html=1;whiteSpace=wrap;" parent="1" vertex="1">
            <mxGeometry x="827" y="138" width="43" height="37" as="geometry" />
          </mxCell>
        </UserObject>
        <UserObject label="&lt;div style=&quot;font-size: 1px&quot;&gt;&lt;font style=&quot;font-size:14.11px;font-family:Calibri;color:#000000;direction:ltr;letter-spacing:0px;line-height:120%;opacity:1&quot;&gt;h&lt;br/&gt;&lt;/font&gt;&lt;/div&gt;" tags="Background" id="23">
          <mxCell style="verticalAlign=middle;align=center;overflow=width;vsdxID=110;shape=stencil(nZE9DsIwDIVP4xWliRiYS7kAJ4iIIRYhqdxQfk5PWhepdGBoJvu9z7b0AqbuvG0RtOoypys+yGUPZg9aU/TIlEsFpgFTnxPjhdM9OulbW0itRgWdzFQDrZXl05HeOGnVZvfztgLJllvqh+tPYZVYr2lSSX8QNFCcoV9zFfwHXQkuzpdizEeSoxAk3rm/zLNI8hem+QA=);points=[[1,0.5,0],[0.5,0,0],[0.5,0.5,0],[0.5,0.5,0]];labelBackgroundColor=none;rounded=1;html=1;whiteSpace=wrap;" parent="1" vertex="1">
            <mxGeometry x="827" y="184" width="43" height="37" as="geometry" />
          </mxCell>
        </UserObject>
        <UserObject label="&lt;div style=&quot;font-size: 1px&quot;&gt;&lt;font style=&quot;font-size:14.11px;font-family:Calibri;color:#000000;direction:ltr;letter-spacing:0px;line-height:120%;opacity:1&quot;&gt;ll&lt;br/&gt;&lt;/font&gt;&lt;/div&gt;" tags="Background" id="24">
          <mxCell style="verticalAlign=middle;align=center;overflow=width;vsdxID=112;shape=stencil(nZE9DsIwDIVP4xWliRiYS7kAJ4iIIRYhqdxQfk5PWhepdGBoJvu9z7b0AqbuvG0RtOoypys+yGUPZg9aU/TIlEsFpgFTnxPjhdM9OulbW0itRgWdzFQDrZXl05HeOGnVZvfztgLJllvqh+tPYZVYr2lSSX8QNFCcoV9zFfwHXQkuzpdizEeSoxAk3rm/zLNI8hem+QA=);points=[[1,0.5,0],[0.5,0,0],[0.5,0.5,0],[0.5,0.5,0]];labelBackgroundColor=none;rounded=1;html=1;whiteSpace=wrap;" parent="1" vertex="1">
            <mxGeometry x="827" y="275" width="43" height="37" as="geometry" />
          </mxCell>
        </UserObject>
        <UserObject label="&lt;div style=&quot;font-size: 1px&quot;&gt;&lt;font style=&quot;font-size:14.11px;font-family:Calibri;color:#000000;direction:ltr;letter-spacing:0px;line-height:120%;opacity:1&quot;&gt;L&lt;br/&gt;&lt;/font&gt;&lt;/div&gt;" tags="Background" id="25">
          <mxCell style="verticalAlign=middle;align=center;overflow=width;vsdxID=113;shape=stencil(nZE9DsIwDIVP4xWliRiYS7kAJ4iIIRYhqdxQfk5PWhepdGBoJvu9z7b0AqbuvG0RtOoypys+yGUPZg9aU/TIlEsFpgFTnxPjhdM9OulbW0itRgWdzFQDrZXl05HeOGnVZvfztgLJllvqh+tPYZVYr2lSSX8QNFCcoV9zFfwHXQkuzpdizEeSoxAk3rm/zLNI8hem+QA=);points=[[1,0.5,0],[0.5,0,0],[0.5,0.5,0],[0.5,0.5,0]];labelBackgroundColor=none;rounded=1;html=1;whiteSpace=wrap;" parent="1" vertex="1">
            <mxGeometry x="827" y="321" width="43" height="37" as="geometry" />
          </mxCell>
        </UserObject>
        <UserObject label="&lt;div style=&quot;font-size: 1px&quot;&gt;&lt;font style=&quot;font-size:14.11px;font-family:Calibri;color:#000000;direction:ltr;letter-spacing:0px;line-height:120%;opacity:1&quot;&gt;l&lt;br/&gt;&lt;/font&gt;&lt;/div&gt;" tags="Background" id="26">
          <mxCell style="verticalAlign=middle;align=center;overflow=width;vsdxID=114;shape=stencil(nZE9DsIwDIVP4xWliRiYS7kAJ4iIIRYhqdxQfk5PWhepdGBoJvu9z7b0AqbuvG0RtOoypys+yGUPZg9aU/TIlEsFpgFTnxPjhdM9OulbW0itRgWdzFQDrZXl05HeOGnVZvfztgLJllvqh+tPYZVYr2lSSX8QNFCcoV9zFfwHXQkuzpdizEeSoxAk3rm/zLNI8hem+QA=);points=[[1,0.5,0],[0.5,0,0],[0.5,0.5,0],[0.5,0.5,0]];labelBackgroundColor=none;rounded=1;html=1;whiteSpace=wrap;" parent="1" vertex="1">
            <mxGeometry x="827" y="230" width="43" height="37" as="geometry" />
          </mxCell>
        </UserObject>
        <UserObject label="&lt;div style=&quot;font-size: 1px&quot;&gt;&lt;font style=&quot;font-size:14.11px;font-family:Calibri;color:#000000;direction:ltr;letter-spacing:0px;line-height:120%;opacity:1&quot;&gt;z&lt;br/&gt;&lt;/font&gt;&lt;/div&gt;" tags="Background" id="27">
          <mxCell style="verticalAlign=middle;align=center;overflow=width;vsdxID=115;shape=stencil(nZE9DsIwDIVP4xWliRiYS7kAJ4iIIRYhqdxQfk5PWhepdGBoJvu9z7b0AqbuvG0RtOoypys+yGUPZg9aU/TIlEsFpgFTnxPjhdM9OulbW0itRgWdzFQDrZXl05HeOGnVZvfztgLJllvqh+tPYZVYr2lSSX8QNFCcoV9zFfwHXQkuzpdizEeSoxAk3rm/zLNI8hem+QA=);points=[[1,0.5,0],[0.5,0,0],[0.5,0.5,0],[0.5,0.5,0]];labelBackgroundColor=none;rounded=1;html=1;whiteSpace=wrap;" parent="1" vertex="1">
            <mxGeometry x="827" y="367" width="43" height="37" as="geometry" />
          </mxCell>
        </UserObject>
        <UserObject label="&lt;div style=&quot;font-size: 1px&quot;&gt;&lt;font style=&quot;font-size:14.11px;font-family:Calibri;color:#000000;direction:ltr;letter-spacing:0px;line-height:120%;opacity:1&quot;&gt;j&lt;br/&gt;&lt;/font&gt;&lt;/div&gt;" tags="Background" id="28">
          <mxCell style="verticalAlign=middle;align=center;overflow=width;vsdxID=116;shape=stencil(nZE9DsIwDIVP4xWliRiYS7kAJ4iIIRYhqdxQfk5PWhepdGBoJvu9z7b0AqbuvG0RtOoypys+yGUPZg9aU/TIlEsFpgFTnxPjhdM9OulbW0itRgWdzFQDrZXl05HeOGnVZvfztgLJllvqh+tPYZVYr2lSSX8QNFCcoV9zFfwHXQkuzpdizEeSoxAk3rm/zLNI8hem+QA=);points=[[1,0.5,0],[0.5,0,0],[0.5,0.5,0],[0.5,0.5,0]];labelBackgroundColor=none;rounded=1;html=1;whiteSpace=wrap;" parent="1" vertex="1">
            <mxGeometry x="827" y="412" width="43" height="37" as="geometry" />
          </mxCell>
        </UserObject>
        <UserObject label="&lt;div style=&quot;font-size: 1px&quot;&gt;&lt;font style=&quot;font-size:14.11px;font-family:Calibri;color:#000000;direction:ltr;letter-spacing:0px;line-height:120%;opacity:1&quot;&gt;t&lt;br/&gt;&lt;/font&gt;&lt;/div&gt;" tags="Background" id="29">
          <mxCell style="verticalAlign=middle;align=center;overflow=width;vsdxID=117;shape=stencil(nZE9DsIwDIVP4xWliRiYS7kAJ4iIIRYhqdxQfk5PWhepdGBoJvu9z7b0AqbuvG0RtOoypys+yGUPZg9aU/TIlEsFpgFTnxPjhdM9OulbW0itRgWdzFQDrZXl05HeOGnVZvfztgLJllvqh+tPYZVYr2lSSX8QNFCcoV9zFfwHXQkuzpdizEeSoxAk3rm/zLNI8hem+QA=);points=[[1,0.5,0],[0.5,0,0],[0.5,0.5,0],[0.5,0.5,0]];labelBackgroundColor=none;rounded=1;html=1;whiteSpace=wrap;" parent="1" vertex="1">
            <mxGeometry x="827" y="458" width="43" height="37" as="geometry" />
          </mxCell>
        </UserObject>
        <UserObject label="&lt;div style=&quot;font-size: 1px&quot;&gt;&lt;font style=&quot;font-size:14.11px;font-family:Calibri;color:#000000;direction:ltr;letter-spacing:0px;line-height:120%;opacity:1&quot;&gt;%&lt;br/&gt;&lt;/font&gt;&lt;/div&gt;" tags="Background" id="30">
          <mxCell style="verticalAlign=middle;align=center;overflow=width;vsdxID=134;shape=stencil(nZE9DsIwDIVP4xWliRiYS7kAJ4iIIRYhqdxQfk5PWhepdGBoJvu9z7b0AqbuvG0RtOoypys+yGUPZg9aU/TIlEsFpgFTnxPjhdM9OulbW0itRgWdzFQDrZXl05HeOGnVZvfztgLJllvqh+tPYZVYr2lSSX8QNFCcoV9zFfwHXQkuzpdizEeSoxAk3rm/zLNI8hem+QA=);points=[[1,0.5,0],[0.5,0,0],[0.5,0.5,0],[0.5,0.5,0]];labelBackgroundColor=none;rounded=1;html=1;whiteSpace=wrap;" parent="1" vertex="1">
            <mxGeometry x="487" y="10" width="43" height="37" as="geometry" />
          </mxCell>
        </UserObject>
        <UserObject label="&lt;div style=&quot;font-size: 1px&quot;&gt;&lt;p style=&quot;text-align:center;margin-left:0;margin-right:0;margin-top:0px;margin-bottom:0px;text-indent:0;vertical-align:top;direction:ltr;&quot;&gt;&lt;font style=&quot;font-size:14.11px;font-family:Calibri;color:#000000;direction:ltr;letter-spacing:0px;line-height:120%;opacity:1&quot;&gt;Numéro d’argument&lt;br/&gt;&lt;/font&gt;&lt;/p&gt;&lt;/div&gt;" tags="Background" id="31">
          <mxCell style="verticalAlign=top;align=center;overflow=width;vsdxID=137;fillColor=none;gradientColor=none;shape=stencil(nZBLDoAgDERP0z3SIyjew0SURgSD+Lu9kMZoXLhwN9O+tukAlrNpJg1SzDH4QW/URgNYgZTkjA4UkwJUgGXng+6DX1zLfmoymdXo17xh5zmRJ6Q42BWCfc2oJfdAr+Yv+AP9Cb7OJ3H/2JG1HNGz/84klThPVCc=);strokeColor=none;strokeWidth=2;points=[];labelBackgroundColor=none;rounded=0;html=1;whiteSpace=wrap;" parent="1" vertex="1">
            <mxGeometry x="155" y="109" width="147" height="28" as="geometry" />
          </mxCell>
        </UserObject>
        <UserObject label="&lt;div style=&quot;font-size: 1px&quot;&gt;&lt;p style=&quot;text-align:center;margin-left:0;margin-right:0;margin-top:0px;margin-bottom:0px;text-indent:0;vertical-align:top;direction:ltr;&quot;&gt;&lt;font style=&quot;font-size:14.11px;font-family:Calibri;color:#000000;direction:ltr;letter-spacing:0px;line-height:120%;opacity:1&quot;&gt;Alignment à gauche&lt;br/&gt;&lt;/font&gt;&lt;/p&gt;&lt;/div&gt;" tags="Background" id="32">
          <mxCell style="verticalAlign=top;align=center;overflow=width;vsdxID=139;fillColor=none;gradientColor=none;shape=stencil(nZBLDoAgDERP0z3SIyjew0SURgSD+Lu9kMZoXLhwN9O+tukAlrNpJg1SzDH4QW/URgNYgZTkjA4UkwJUgGXng+6DX1zLfmoymdXo17xh5zmRJ6Q42BWCfc2oJfdAr+Yv+AP9Cb7OJ3H/2JG1HNGz/84klThPVCc=);strokeColor=none;strokeWidth=2;points=[];labelBackgroundColor=none;rounded=0;html=1;whiteSpace=wrap;" parent="1" vertex="1">
            <mxGeometry x="337" y="115" width="126" height="28" as="geometry" />
          </mxCell>
        </UserObject>
        <UserObject label="&lt;div style=&quot;font-size: 1px&quot;&gt;&lt;p style=&quot;text-align:center;margin-left:0;margin-right:0;margin-top:0px;margin-bottom:0px;text-indent:0;vertical-align:top;direction:ltr;&quot;&gt;&lt;font style=&quot;font-size:14.11px;font-family:Calibri;color:#000000;direction:ltr;letter-spacing:0px;line-height:120%;opacity:1&quot;&gt;Largeur&lt;br/&gt;&lt;/font&gt;&lt;/p&gt;&lt;/div&gt;" tags="Background" id="33">
          <mxCell style="verticalAlign=top;align=center;overflow=width;vsdxID=140;fillColor=none;gradientColor=none;shape=stencil(nZBLDoAgDERP0z3SIyjew0SURgSD+Lu9kMZoXLhwN9O+tukAlrNpJg1SzDH4QW/URgNYgZTkjA4UkwJUgGXng+6DX1zLfmoymdXo17xh5zmRJ6Q42BWCfc2oJfdAr+Yv+AP9Cb7OJ3H/2JG1HNGz/84klThPVCc=);strokeColor=none;strokeWidth=2;points=[];labelBackgroundColor=none;rounded=0;html=1;whiteSpace=wrap;" parent="1" vertex="1">
            <mxGeometry x="480" y="107" width="79" height="28" as="geometry" />
          </mxCell>
        </UserObject>
        <UserObject label="&lt;div style=&quot;font-size: 1px&quot;&gt;&lt;p style=&quot;text-align:center;margin-left:0;margin-right:0;margin-top:0px;margin-bottom:0px;text-indent:0;vertical-align:top;direction:ltr;&quot;&gt;&lt;font style=&quot;font-size:14.11px;font-family:Calibri;color:#000000;direction:ltr;letter-spacing:0px;line-height:120%;opacity:1&quot;&gt;Précision&lt;br/&gt;&lt;/font&gt;&lt;/p&gt;&lt;/div&gt;" tags="Background" id="34">
          <mxCell style="verticalAlign=top;align=center;overflow=width;vsdxID=141;fillColor=none;gradientColor=none;shape=stencil(nZBLDoAgDERP0z3SIyjew0SURgSD+Lu9kMZoXLhwN9O+tukAlrNpJg1SzDH4QW/URgNYgZTkjA4UkwJUgGXng+6DX1zLfmoymdXo17xh5zmRJ6Q42BWCfc2oJfdAr+Yv+AP9Cb7OJ3H/2JG1HNGz/84klThPVCc=);strokeColor=none;strokeWidth=2;points=[];labelBackgroundColor=none;rounded=0;html=1;whiteSpace=wrap;" parent="1" vertex="1">
            <mxGeometry x="641" y="105" width="79" height="28" as="geometry" />
          </mxCell>
        </UserObject>
        <UserObject label="&lt;div style=&quot;font-size: 1px&quot;&gt;&lt;p style=&quot;text-align:center;margin-left:0;margin-right:0;margin-top:0px;margin-bottom:0px;text-indent:0;vertical-align:top;direction:ltr;&quot;&gt;&lt;font style=&quot;font-size:14.11px;font-family:Calibri;color:#000000;direction:ltr;letter-spacing:0px;line-height:120%;opacity:1&quot;&gt;Longueur&lt;br/&gt;&lt;/font&gt;&lt;/p&gt;&lt;/div&gt;" tags="Background" id="35">
          <mxCell style="verticalAlign=top;align=center;overflow=width;vsdxID=142;fillColor=none;gradientColor=none;shape=stencil(nZBLDoAgDERP0z3SIyjew0SURgSD+Lu9kMZoXLhwN9O+tukAlrNpJg1SzDH4QW/URgNYgZTkjA4UkwJUgGXng+6DX1zLfmoymdXo17xh5zmRJ6Q42BWCfc2oJfdAr+Yv+AP9Cb7OJ3H/2JG1HNGz/84klThPVCc=);strokeColor=none;strokeWidth=2;points=[];labelBackgroundColor=none;rounded=0;html=1;whiteSpace=wrap;" parent="1" vertex="1">
            <mxGeometry x="812" y="102" width="79" height="28" as="geometry" />
          </mxCell>
        </UserObject>
        <UserObject label="&lt;div style=&quot;font-size: 1px&quot;&gt;&lt;p style=&quot;text-align:center;margin-left:0;margin-right:0;margin-top:0px;margin-bottom:0px;text-indent:0;vertical-align:top;direction:ltr;&quot;&gt;&lt;font style=&quot;font-size:14.11px;font-family:Calibri;color:#000000;direction:ltr;letter-spacing:0px;line-height:120%;opacity:1&quot;&gt;Préfixe +&lt;br/&gt;&lt;/font&gt;&lt;/p&gt;&lt;/div&gt;" tags="Background" id="36">
          <mxCell style="verticalAlign=top;align=center;overflow=width;vsdxID=143;fillColor=none;gradientColor=none;shape=stencil(nZBLDoAgDERP0z3SIyjew0SURgSD+Lu9kMZoXLhwN9O+tukAlrNpJg1SzDH4QW/URgNYgZTkjA4UkwJUgGXng+6DX1zLfmoymdXo17xh5zmRJ6Q42BWCfc2oJfdAr+Yv+AP9Cb7OJ3H/2JG1HNGz/84klThPVCc=);strokeColor=none;strokeWidth=2;points=[];labelBackgroundColor=none;rounded=0;html=1;whiteSpace=wrap;" parent="1" vertex="1">
            <mxGeometry x="362" y="180" width="79" height="28" as="geometry" />
          </mxCell>
        </UserObject>
        <UserObject label="&lt;div style=&quot;font-size: 1px&quot;&gt;&lt;p style=&quot;text-align:center;margin-left:0;margin-right:0;margin-top:0px;margin-bottom:0px;text-indent:0;vertical-align:top;direction:ltr;&quot;&gt;&lt;font style=&quot;font-size:14.11px;font-family:Calibri;color:#000000;direction:ltr;letter-spacing:0px;line-height:120%;opacity:1&quot;&gt;&lt;i&gt;Padding&lt;br/&gt;&lt;/i&gt;&lt;/font&gt;&lt;/p&gt;&lt;/div&gt;" tags="Background" id="37">
          <mxCell style="verticalAlign=top;align=center;overflow=width;vsdxID=144;fillColor=none;gradientColor=none;shape=stencil(nZBLDoAgDERP0z3SIyjew0SURgSD+Lu9kMZoXLhwN9O+tukAlrNpJg1SzDH4QW/URgNYgZTkjA4UkwJUgGXng+6DX1zLfmoymdXo17xh5zmRJ6Q42BWCfc2oJfdAr+Yv+AP9Cb7OJ3H/2JG1HNGz/84klThPVCc=);strokeColor=none;strokeWidth=2;points=[];labelBackgroundColor=none;rounded=0;html=1;whiteSpace=wrap;" parent="1" vertex="1">
            <mxGeometry x="362" y="239" width="79" height="28" as="geometry" />
          </mxCell>
        </UserObject>
        <UserObject label="&lt;div style=&quot;font-size: 1px&quot;&gt;&lt;p style=&quot;text-align:center;margin-left:0;margin-right:0;margin-top:0px;margin-bottom:0px;text-indent:0;vertical-align:top;direction:ltr;&quot;&gt;&lt;font style=&quot;font-size:14.11px;font-family:Calibri;color:#000000;direction:ltr;letter-spacing:0px;line-height:120%;opacity:1&quot;&gt;Forme &lt;br/&gt;alternative&lt;br/&gt;&lt;/font&gt;&lt;/p&gt;&lt;/div&gt;" tags="Background" id="38">
          <mxCell style="verticalAlign=top;align=center;overflow=width;vsdxID=145;fillColor=none;gradientColor=none;shape=stencil(nZBLDoAgDERP0z3SIyjew0SURgSD+Lu9kMZoXLhwN9O+tukAlrNpJg1SzDH4QW/URgNYgZTkjA4UkwJUgGXng+6DX1zLfmoymdXo17xh5zmRJ6Q42BWCfc2oJfdAr+Yv+AP9Cb7OJ3H/2JG1HNGz/84klThPVCc=);strokeColor=none;strokeWidth=2;points=[];labelBackgroundColor=none;rounded=0;html=1;whiteSpace=wrap;" parent="1" vertex="1">
            <mxGeometry x="339" y="357" width="126" height="46" as="geometry" />
          </mxCell>
        </UserObject>
        <UserObject label="&lt;div style=&quot;font-size: 1px&quot;&gt;&lt;font style=&quot;font-size:14.11px;font-family:Calibri;color:#000000;direction:ltr;letter-spacing:0px;line-height:120%;opacity:1&quot;&gt;[diufFeEgGxXoscpaAn]&lt;br/&gt;&lt;/font&gt;&lt;/div&gt;" tags="Background" id="39">
          <mxCell style="verticalAlign=middle;align=center;overflow=width;vsdxID=147;shape=stencil(nZE9DsIwDIVP4xWliRiYS7kAJ4iIIRYhqdxQfk5PWhepdGBoJvu9z7b0AqbuvG0RtOoypys+yGUPZg9aU/TIlEsFpgFTnxPjhdM9OulbW0itRgWdzFQDrZXl05HeOGnVZvfztgLJllvqh+tPYZVYr2lSSX8QNFCcoV9zFfwHXQkuzpdizEeSoxAk3rm/zLNI8hem+QA=);points=[[1,0.5,0],[0.5,0,0],[0.5,0.5,0],[0.5,0.5,0]];labelBackgroundColor=none;rounded=1;html=1;whiteSpace=wrap;" parent="1" vertex="1">
            <mxGeometry x="926" y="65" width="147" height="37" as="geometry" />
          </mxCell>
        </UserObject>
        <UserObject label="&lt;div style=&quot;font-size: 1px&quot;&gt;&lt;p style=&quot;text-align:center;margin-left:0;margin-right:0;margin-top:0px;margin-bottom:0px;text-indent:0;vertical-align:top;direction:ltr;&quot;&gt;&lt;font style=&quot;font-size:14.11px;font-family:Calibri;color:#000000;direction:ltr;letter-spacing:0px;line-height:120%;opacity:1&quot;&gt;Type&lt;br/&gt;&lt;/font&gt;&lt;/p&gt;&lt;/div&gt;" tags="Background" id="40">
          <mxCell style="verticalAlign=top;align=center;overflow=width;vsdxID=151;fillColor=none;gradientColor=none;shape=stencil(nZBLDoAgDERP0z3SIyjew0SURgSD+Lu9kMZoXLhwN9O+tukAlrNpJg1SzDH4QW/URgNYgZTkjA4UkwJUgGXng+6DX1zLfmoymdXo17xh5zmRJ6Q42BWCfc2oJfdAr+Yv+AP9Cb7OJ3H/2JG1HNGz/84klThPVCc=);strokeColor=none;strokeWidth=2;points=[];labelBackgroundColor=none;rounded=0;html=1;whiteSpace=wrap;" parent="1" vertex="1">
            <mxGeometry x="956" y="35" width="79" height="28" as="geometry" />
          </mxCell>
        </UserObject>
        <UserObject label="" tags="Lien" id="41">
          <mxCell style="vsdxID=150;edgeStyle=none;startArrow=none;endArrow=block;startSize=5;endSize=5;strokeColor=#000000;spacingTop=0;spacingBottom=0;spacingLeft=0;spacingRight=0;verticalAlign=middle;html=1;labelBackgroundColor=#ffffff;rounded=1;exitX=1;exitY=0.5135135135135135;exitDx=0;exitDy=0;exitPerimeter=0;entryX=0;entryY=0.5294117647058824;entryDx=0;entryDy=0;entryPerimeter=0;" parent="1" source="39" target="3" edge="1">
            <mxGeometry relative="1" as="geometry">
              <mxPoint as="offset" />
              <Array as="points" />
            </mxGeometry>
          </mxCell>
        </UserObject>
        <UserObject label="&lt;div style=&quot;font-size: 1px&quot;&gt;&lt;/div&gt;" tags="Lien" id="42">
          <mxCell style="vsdxID=149;edgeStyle=none;startArrow=none;endArrow=block;startSize=5;endSize=5;strokeColor=#000000;spacingTop=0;spacingBottom=0;spacingLeft=0;spacingRight=0;verticalAlign=middle;html=1;labelBackgroundColor=#ffffff;rounded=1;align=center;exitX=0;exitY=0.5135135135135135;exitDx=0;exitDy=0;exitPerimeter=0;entryX=0;entryY=0.5135135135135135;entryDx=0;entryDy=0;entryPerimeter=0;" parent="1" source="39" target="39" edge="1">
            <mxGeometry relative="1" as="geometry">
              <mxPoint x="-10" as="offset" />
              <Array as="points">
                <mxPoint x="916" y="84" />
                <mxPoint x="916" y="84" />
              </Array>
            </mxGeometry>
          </mxCell>
        </UserObject>
        <UserObject label="" tags="Lien" id="43">
          <mxCell style="vsdxID=136;edgeStyle=none;startArrow=none;endArrow=block;startSize=5;endSize=5;strokeColor=#000000;spacingTop=0;spacingBottom=0;spacingLeft=0;spacingRight=0;verticalAlign=middle;html=1;labelBackgroundColor=#ffffff;rounded=1;exitX=1;exitY=0.5135135135135135;exitDx=0;exitDy=0;exitPerimeter=0;entryX=0;entryY=0.5294117647058824;entryDx=0;entryDy=0;entryPerimeter=0;" parent="1" source="30" target="3" edge="1">
            <mxGeometry relative="1" as="geometry">
              <mxPoint x="-10" as="offset" />
              <Array as="points">
                <mxPoint x="1090" y="29" />
                <mxPoint x="1090" y="84" />
              </Array>
            </mxGeometry>
          </mxCell>
        </UserObject>
        <UserObject label="" tags="Lien" id="44">
          <mxCell style="vsdxID=135;edgeStyle=none;startArrow=none;endArrow=block;startSize=5;endSize=5;strokeColor=#000000;spacingTop=0;spacingBottom=0;spacingLeft=0;spacingRight=0;verticalAlign=middle;html=1;labelBackgroundColor=#ffffff;rounded=1;exitX=1;exitY=0.5135135135135135;exitDx=0;exitDy=0;exitPerimeter=0;entryX=0;entryY=0.5135135135135135;entryDx=0;entryDy=0;entryPerimeter=0;" parent="1" source="4" target="30" edge="1">
            <mxGeometry relative="1" as="geometry">
              <mxPoint x="8" as="offset" />
              <Array as="points">
                <mxPoint x="160.68" y="84" />
                <mxPoint x="160.68" y="29" />
              </Array>
            </mxGeometry>
          </mxCell>
        </UserObject>
        <UserObject label="" tags="Lien" id="45">
          <mxCell style="vsdxID=133;edgeStyle=none;startArrow=none;endArrow=block;startSize=5;endSize=5;strokeColor=#000000;spacingTop=0;spacingBottom=0;spacingLeft=0;spacingRight=0;verticalAlign=middle;html=1;labelBackgroundColor=#ffffff;rounded=1;exitX=1;exitY=0.5135135135135135;exitDx=0;exitDy=0;exitPerimeter=0;entryX=0;entryY=0.5135135135135135;entryDx=0;entryDy=0;entryPerimeter=0;" parent="1" source="29" target="39" edge="1">
            <mxGeometry relative="1" as="geometry">
              <mxPoint y="1" as="offset" />
              <Array as="points">
                <mxPoint x="890.65" y="477" />
                <mxPoint x="890.65" y="84.64" />
              </Array>
            </mxGeometry>
          </mxCell>
        </UserObject>
        <UserObject label="" tags="Lien" id="46">
          <mxCell style="vsdxID=132;edgeStyle=none;startArrow=none;endArrow=block;startSize=5;endSize=5;strokeColor=#000000;spacingTop=0;spacingBottom=0;spacingLeft=0;spacingRight=0;verticalAlign=middle;html=1;labelBackgroundColor=#ffffff;rounded=1;exitX=1;exitY=0.5135135135135135;exitDx=0;exitDy=0;exitPerimeter=0;entryX=0;entryY=0.5135135135135135;entryDx=0;entryDy=0;entryPerimeter=0;" parent="1" source="28" target="39" edge="1">
            <mxGeometry relative="1" as="geometry">
              <mxPoint y="1" as="offset" />
              <Array as="points">
                <mxPoint x="890.65" y="431" />
                <mxPoint x="890.65" y="84.27" />
              </Array>
            </mxGeometry>
          </mxCell>
        </UserObject>
        <UserObject label="" tags="Lien" id="47">
          <mxCell style="vsdxID=131;edgeStyle=none;startArrow=none;endArrow=block;startSize=5;endSize=5;strokeColor=#000000;spacingTop=0;spacingBottom=0;spacingLeft=0;spacingRight=0;verticalAlign=middle;html=1;labelBackgroundColor=#ffffff;rounded=1;exitX=1;exitY=0.4864864864864865;exitDx=0;exitDy=0;exitPerimeter=0;entryX=0;entryY=0.5135135135135135;entryDx=0;entryDy=0;entryPerimeter=0;" parent="1" source="27" target="39" edge="1">
            <mxGeometry relative="1" as="geometry">
              <mxPoint y="1" as="offset" />
              <Array as="points">
                <mxPoint x="890.65" y="385" />
                <mxPoint x="890.65" y="83.89" />
              </Array>
            </mxGeometry>
          </mxCell>
        </UserObject>
        <UserObject label="" tags="Lien" id="48">
          <mxCell style="vsdxID=130;edgeStyle=none;startArrow=none;endArrow=block;startSize=5;endSize=5;strokeColor=#000000;spacingTop=0;spacingBottom=0;spacingLeft=0;spacingRight=0;verticalAlign=middle;html=1;labelBackgroundColor=#ffffff;rounded=1;exitX=1;exitY=0.5135135135135135;exitDx=0;exitDy=0;exitPerimeter=0;entryX=0;entryY=0.5135135135135135;entryDx=0;entryDy=0;entryPerimeter=0;" parent="1" source="25" target="39" edge="1">
            <mxGeometry relative="1" as="geometry">
              <mxPoint y="1" as="offset" />
              <Array as="points">
                <mxPoint x="890.65" y="340" />
                <mxPoint x="890.65" y="84.52" />
              </Array>
            </mxGeometry>
          </mxCell>
        </UserObject>
        <UserObject label="" tags="Lien" id="49">
          <mxCell style="vsdxID=129;edgeStyle=none;startArrow=none;endArrow=block;startSize=5;endSize=5;strokeColor=#000000;spacingTop=0;spacingBottom=0;spacingLeft=0;spacingRight=0;verticalAlign=middle;html=1;labelBackgroundColor=#ffffff;rounded=1;exitX=1;exitY=0.5135135135135135;exitDx=0;exitDy=0;exitPerimeter=0;entryX=0;entryY=0.5135135135135135;entryDx=0;entryDy=0;entryPerimeter=0;" parent="1" source="24" target="39" edge="1">
            <mxGeometry relative="1" as="geometry">
              <mxPoint y="2" as="offset" />
              <Array as="points">
                <mxPoint x="890.65" y="294" />
                <mxPoint x="890.65" y="84.14" />
              </Array>
            </mxGeometry>
          </mxCell>
        </UserObject>
        <UserObject label="" tags="Lien" id="50">
          <mxCell style="vsdxID=128;edgeStyle=none;startArrow=none;endArrow=block;startSize=5;endSize=5;strokeColor=#000000;spacingTop=0;spacingBottom=0;spacingLeft=0;spacingRight=0;verticalAlign=middle;html=1;labelBackgroundColor=#ffffff;rounded=1;exitX=1;exitY=0.4864864864864865;exitDx=0;exitDy=0;exitPerimeter=0;entryX=0;entryY=0.5135135135135135;entryDx=0;entryDy=0;entryPerimeter=0;" parent="1" source="26" target="39" edge="1">
            <mxGeometry relative="1" as="geometry">
              <mxPoint y="1" as="offset" />
              <Array as="points">
                <mxPoint x="891.29" y="248" />
                <mxPoint x="891.29" y="83.77" />
              </Array>
            </mxGeometry>
          </mxCell>
        </UserObject>
        <UserObject label="" tags="Lien" id="51">
          <mxCell style="vsdxID=127;edgeStyle=none;startArrow=none;endArrow=block;startSize=5;endSize=5;strokeColor=#000000;spacingTop=0;spacingBottom=0;spacingLeft=0;spacingRight=0;verticalAlign=middle;html=1;labelBackgroundColor=#ffffff;rounded=1;exitX=1;exitY=0.5135135135135135;exitDx=0;exitDy=0;exitPerimeter=0;entryX=0;entryY=0.5135135135135135;entryDx=0;entryDy=0;entryPerimeter=0;" parent="1" source="23" target="39" edge="1">
            <mxGeometry relative="1" as="geometry">
              <mxPoint y="1" as="offset" />
              <Array as="points">
                <mxPoint x="891.29" y="203" />
                <mxPoint x="891.29" y="84.39" />
              </Array>
            </mxGeometry>
          </mxCell>
        </UserObject>
        <UserObject label="" tags="Lien" id="52">
          <mxCell style="vsdxID=126;edgeStyle=none;startArrow=none;endArrow=block;startSize=5;endSize=5;strokeColor=#000000;spacingTop=0;spacingBottom=0;spacingLeft=0;spacingRight=0;verticalAlign=middle;html=1;labelBackgroundColor=#ffffff;rounded=1;exitX=1;exitY=0.5135135135135135;exitDx=0;exitDy=0;exitPerimeter=0;entryX=0;entryY=0.5135135135135135;entryDx=0;entryDy=0;entryPerimeter=0;" parent="1" source="22" target="39" edge="1">
            <mxGeometry relative="1" as="geometry">
              <mxPoint y="2" as="offset" />
              <Array as="points">
                <mxPoint x="891.29" y="157" />
                <mxPoint x="891.29" y="84.02" />
              </Array>
            </mxGeometry>
          </mxCell>
        </UserObject>
        <UserObject label="" tags="Lien" id="53">
          <mxCell style="vsdxID=125;edgeStyle=none;startArrow=none;endArrow=block;startSize=5;endSize=5;strokeColor=#000000;spacingTop=0;spacingBottom=0;spacingLeft=0;spacingRight=0;verticalAlign=middle;html=1;labelBackgroundColor=#ffffff;rounded=1;exitX=1;exitY=0.5135135135135135;exitDx=0;exitDy=0;exitPerimeter=0;entryX=0;entryY=0.5135135135135135;entryDx=0;entryDy=0;entryPerimeter=0;" parent="1" source="4" target="29" edge="1">
            <mxGeometry relative="1" as="geometry">
              <mxPoint x="-8" as="offset" />
              <Array as="points">
                <mxPoint x="802.61" y="84" />
                <mxPoint x="802.61" y="476.36" />
              </Array>
            </mxGeometry>
          </mxCell>
        </UserObject>
        <UserObject label="" tags="Lien" id="54">
          <mxCell style="vsdxID=124;edgeStyle=none;startArrow=none;endArrow=block;startSize=5;endSize=5;strokeColor=#000000;spacingTop=0;spacingBottom=0;spacingLeft=0;spacingRight=0;verticalAlign=middle;html=1;labelBackgroundColor=#ffffff;rounded=1;exitX=1;exitY=0.5135135135135135;exitDx=0;exitDy=0;exitPerimeter=0;entryX=0;entryY=0.5135135135135135;entryDx=0;entryDy=0;entryPerimeter=0;" parent="1" source="4" target="28" edge="1">
            <mxGeometry relative="1" as="geometry">
              <mxPoint x="-8" as="offset" />
              <Array as="points">
                <mxPoint x="802.61" y="84" />
                <mxPoint x="802.61" y="430.73" />
              </Array>
            </mxGeometry>
          </mxCell>
        </UserObject>
        <UserObject label="" tags="Lien" id="55">
          <mxCell style="vsdxID=66;edgeStyle=none;startArrow=none;endArrow=block;startSize=5;endSize=5;strokeColor=#000000;spacingTop=0;spacingBottom=0;spacingLeft=0;spacingRight=0;verticalAlign=middle;html=1;labelBackgroundColor=#ffffff;rounded=1;exitX=1.0232558139534884;exitY=0.5135135135135135;exitDx=0;exitDy=0;exitPerimeter=0;entryX=0;entryY=0.5135135135135135;entryDx=0;entryDy=0;entryPerimeter=0;" parent="1" source="11" target="7" edge="1">
            <mxGeometry relative="1" as="geometry">
              <mxPoint y="6" as="offset" />
              <Array as="points">
                <mxPoint x="300.86" y="162" />
                <mxPoint x="300.86" y="84.5" />
                <mxPoint x="330.86" y="84.5" />
                <mxPoint x="330.86" y="222" />
              </Array>
            </mxGeometry>
          </mxCell>
        </UserObject>
        <UserObject label="" tags="Lien" id="56">
          <mxCell style="vsdxID=65;edgeStyle=none;startArrow=none;endArrow=block;startSize=5;endSize=5;strokeColor=#000000;spacingTop=0;spacingBottom=0;spacingLeft=0;spacingRight=0;verticalAlign=middle;html=1;labelBackgroundColor=#ffffff;rounded=1;exitX=1;exitY=0.5135135135135135;exitDx=0;exitDy=0;exitPerimeter=0;entryX=0;entryY=0.5135135135135135;entryDx=0;entryDy=0;entryPerimeter=0;" parent="1" source="4" target="6" edge="1">
            <mxGeometry relative="1" as="geometry">
              <mxPoint x="-9" as="offset" />
              <Array as="points">
                <mxPoint x="330.36" y="84" />
                <mxPoint x="330.36" y="161.5" />
              </Array>
            </mxGeometry>
          </mxCell>
        </UserObject>
        <UserObject label="" tags="Lien" id="57">
          <mxCell style="vsdxID=64;edgeStyle=none;startArrow=none;endArrow=block;startSize=5;endSize=5;strokeColor=#000000;spacingTop=0;spacingBottom=0;spacingLeft=0;spacingRight=0;verticalAlign=middle;html=1;labelBackgroundColor=#ffffff;rounded=1;exitX=1.0232558139534884;exitY=0.5135135135135135;exitDx=0;exitDy=0;exitPerimeter=0;entryX=0;entryY=0.5135135135135135;entryDx=0;entryDy=0;entryPerimeter=0;" parent="1" source="12" target="11" edge="1">
            <mxGeometry relative="1" as="geometry">
              <mxPoint x="2" as="offset" />
              <Array as="points" />
            </mxGeometry>
          </mxCell>
        </UserObject>
        <UserObject label="" tags="Lien" id="58">
          <mxCell style="vsdxID=62;edgeStyle=none;startArrow=none;endArrow=block;startSize=5;endSize=5;strokeColor=#000000;spacingTop=0;spacingBottom=0;spacingLeft=0;spacingRight=0;verticalAlign=middle;html=1;labelBackgroundColor=#ffffff;rounded=1;exitX=1;exitY=0.5135135135135135;exitDx=0;exitDy=0;exitPerimeter=0;entryX=0;entryY=0.5135135135135135;entryDx=0;entryDy=0;entryPerimeter=0;" parent="1" source="4" target="12" edge="1">
            <mxGeometry relative="1" as="geometry">
              <mxPoint y="1" as="offset" />
              <Array as="points">
                <mxPoint x="160.68" y="84" />
                <mxPoint x="160.68" y="161.5" />
              </Array>
            </mxGeometry>
          </mxCell>
        </UserObject>
        <UserObject label="" tags="Lien" id="59">
          <mxCell style="vsdxID=34;edgeStyle=none;startArrow=none;endArrow=block;startSize=5;endSize=5;strokeColor=#000000;spacingTop=0;spacingBottom=0;spacingLeft=0;spacingRight=0;verticalAlign=middle;html=1;labelBackgroundColor=#ffffff;rounded=0;exitX=1.0588235294117647;exitY=0.5294117647058824;exitDx=0;exitDy=0;exitPerimeter=0;entryX=0;entryY=0.5135135135135135;entryDx=0;entryDy=0;entryPerimeter=0;" parent="1" source="2" target="4" edge="1">
            <mxGeometry relative="1" as="geometry">
              <mxPoint as="offset" />
              <Array as="points" />
            </mxGeometry>
          </mxCell>
        </UserObject>
        <UserObject label="" tags="Lien" id="60">
          <mxCell style="vsdxID=67;edgeStyle=none;startArrow=none;endArrow=block;startSize=5;endSize=5;strokeColor=#000000;spacingTop=0;spacingBottom=0;spacingLeft=0;spacingRight=0;verticalAlign=middle;html=1;labelBackgroundColor=#ffffff;rounded=1;exitX=1;exitY=0.5135135135135135;exitDx=0;exitDy=0;exitPerimeter=0;entryX=0;entryY=0.5135135135135135;entryDx=0;entryDy=0;entryPerimeter=0;" parent="1" source="4" target="8" edge="1">
            <mxGeometry relative="1" as="geometry">
              <mxPoint as="offset" />
              <Array as="points">
                <mxPoint x="330.36" y="84" />
                <mxPoint x="330.36" y="288.37" />
              </Array>
            </mxGeometry>
          </mxCell>
        </UserObject>
        <UserObject label="" tags="Lien" id="61">
          <mxCell style="vsdxID=68;edgeStyle=none;startArrow=none;endArrow=block;startSize=5;endSize=5;strokeColor=#000000;spacingTop=0;spacingBottom=0;spacingLeft=0;spacingRight=0;verticalAlign=middle;html=1;labelBackgroundColor=#ffffff;rounded=1;exitX=1;exitY=0.5135135135135135;exitDx=0;exitDy=0;exitPerimeter=0;entryX=0;entryY=0.5135135135135135;entryDx=0;entryDy=0;entryPerimeter=0;" parent="1" source="4" target="9" edge="1">
            <mxGeometry relative="1" as="geometry">
              <mxPoint as="offset" />
              <Array as="points">
                <mxPoint x="330.36" y="84" />
                <mxPoint x="330.36" y="334" />
              </Array>
            </mxGeometry>
          </mxCell>
        </UserObject>
        <UserObject label="" tags="Lien" id="62">
          <mxCell style="vsdxID=69;edgeStyle=none;startArrow=none;endArrow=block;startSize=5;endSize=5;strokeColor=#000000;spacingTop=0;spacingBottom=0;spacingLeft=0;spacingRight=0;verticalAlign=middle;html=1;labelBackgroundColor=#ffffff;rounded=1;exitX=1;exitY=0.5135135135135135;exitDx=0;exitDy=0;exitPerimeter=0;entryX=0;entryY=0.5135135135135135;entryDx=0;entryDy=0;entryPerimeter=0;" parent="1" source="4" target="10" edge="1">
            <mxGeometry relative="1" as="geometry">
              <mxPoint as="offset" />
              <Array as="points">
                <mxPoint x="330.36" y="84" />
                <mxPoint x="330.36" y="426.99" />
              </Array>
            </mxGeometry>
          </mxCell>
        </UserObject>
        <UserObject label="" tags="Lien" id="63">
          <mxCell style="vsdxID=70;edgeStyle=none;startArrow=none;endArrow=block;startSize=5;endSize=5;strokeColor=#000000;spacingTop=0;spacingBottom=0;spacingLeft=0;spacingRight=0;verticalAlign=middle;html=1;labelBackgroundColor=#ffffff;rounded=1;exitX=1.0232558139534884;exitY=0.5135135135135135;exitDx=0;exitDy=0;exitPerimeter=0;entryX=0;entryY=0.5135135135135135;entryDx=0;entryDy=0;entryPerimeter=0;" parent="1" source="10" target="10" edge="1">
            <mxGeometry relative="1" as="geometry">
              <mxPoint x="-1" as="offset" />
              <Array as="points">
                <mxPoint x="464.23" y="427" />
                <mxPoint x="464.23" y="102.75999999999999" />
                <mxPoint x="330.86" y="102.75999999999999" />
                <mxPoint x="330.86" y="427" />
              </Array>
            </mxGeometry>
          </mxCell>
        </UserObject>
        <UserObject label="" tags="Lien" id="64">
          <mxCell style="vsdxID=71;edgeStyle=none;startArrow=none;endArrow=block;startSize=5;endSize=5;strokeColor=#000000;spacingTop=0;spacingBottom=0;spacingLeft=0;spacingRight=0;verticalAlign=middle;html=1;labelBackgroundColor=#ffffff;rounded=1;exitX=1;exitY=0.5135135135135135;exitDx=0;exitDy=0;exitPerimeter=0;entryX=0;entryY=0.5135135135135135;entryDx=0;entryDy=0;entryPerimeter=0;" parent="1" source="9" target="9" edge="1">
            <mxGeometry relative="1" as="geometry">
              <mxPoint x="-1" as="offset" />
              <Array as="points">
                <mxPoint x="463.59" y="334" />
                <mxPoint x="463.59" y="102.75" />
                <mxPoint x="330.21" y="102.75" />
                <mxPoint x="330.21" y="334" />
              </Array>
            </mxGeometry>
          </mxCell>
        </UserObject>
        <UserObject label="" tags="Lien" id="65">
          <mxCell style="vsdxID=72;edgeStyle=none;startArrow=none;endArrow=block;startSize=5;endSize=5;strokeColor=#000000;spacingTop=0;spacingBottom=0;spacingLeft=0;spacingRight=0;verticalAlign=middle;html=1;labelBackgroundColor=#ffffff;rounded=1;exitX=1;exitY=0.5135135135135135;exitDx=0;exitDy=0;exitPerimeter=0;entryX=0;entryY=0.5135135135135135;entryDx=0;entryDy=0;entryPerimeter=0;" parent="1" source="8" target="8" edge="1">
            <mxGeometry relative="1" as="geometry">
              <mxPoint x="-1" as="offset" />
              <Array as="points">
                <mxPoint x="463.59" y="289" />
                <mxPoint x="463.59" y="103.37" />
                <mxPoint x="330.21" y="103.37" />
                <mxPoint x="330.21" y="289" />
              </Array>
            </mxGeometry>
          </mxCell>
        </UserObject>
        <UserObject label="" tags="Lien" id="66">
          <mxCell style="vsdxID=73;edgeStyle=none;startArrow=none;endArrow=block;startSize=5;endSize=5;strokeColor=#000000;spacingTop=0;spacingBottom=0;spacingLeft=0;spacingRight=0;verticalAlign=middle;html=1;labelBackgroundColor=#ffffff;rounded=1;exitX=1.0232558139534884;exitY=0.5135135135135135;exitDx=0;exitDy=0;exitPerimeter=0;entryX=0;entryY=0.5135135135135135;entryDx=0;entryDy=0;entryPerimeter=0;" parent="1" source="7" target="7" edge="1">
            <mxGeometry relative="1" as="geometry">
              <mxPoint as="offset" />
              <Array as="points">
                <mxPoint x="464.23" y="222" />
                <mxPoint x="464.23" y="103.25" />
                <mxPoint x="330.86" y="103.25" />
                <mxPoint x="330.86" y="222" />
              </Array>
            </mxGeometry>
          </mxCell>
        </UserObject>
        <UserObject label="" tags="Lien" id="67">
          <mxCell style="vsdxID=74;edgeStyle=none;startArrow=none;endArrow=block;startSize=5;endSize=5;strokeColor=#000000;spacingTop=0;spacingBottom=0;spacingLeft=0;spacingRight=0;verticalAlign=middle;html=1;labelBackgroundColor=#ffffff;rounded=1;exitX=1.0232558139534884;exitY=0.5135135135135135;exitDx=0;exitDy=0;exitPerimeter=0;entryX=0;entryY=0.5135135135135135;entryDx=0;entryDy=0;entryPerimeter=0;" parent="1" source="6" target="6" edge="1">
            <mxGeometry relative="1" as="geometry">
              <mxPoint as="offset" />
              <Array as="points">
                <mxPoint x="464.23" y="162" />
                <mxPoint x="464.23" y="103.25" />
                <mxPoint x="330.86" y="103.25" />
                <mxPoint x="330.86" y="162" />
              </Array>
            </mxGeometry>
          </mxCell>
        </UserObject>
        <UserObject label="" tags="Lien" id="68">
          <mxCell style="vsdxID=79;edgeStyle=none;startArrow=none;endArrow=block;startSize=5;endSize=5;strokeColor=#000000;spacingTop=0;spacingBottom=0;spacingLeft=0;spacingRight=0;verticalAlign=middle;html=1;labelBackgroundColor=#ffffff;rounded=1;exitX=1;exitY=0.5135135135135135;exitDx=0;exitDy=0;exitPerimeter=0;entryX=0;entryY=0.5135135135135135;entryDx=0;entryDy=0;entryPerimeter=0;" parent="1" source="4" target="5" edge="1">
            <mxGeometry relative="1" as="geometry">
              <mxPoint x="-9" as="offset" />
              <Array as="points">
                <mxPoint x="463.73" y="84" />
                <mxPoint x="463.73" y="159.34" />
              </Array>
            </mxGeometry>
          </mxCell>
        </UserObject>
        <UserObject label="" tags="Lien" id="69">
          <mxCell style="vsdxID=80;edgeStyle=none;startArrow=none;endArrow=block;startSize=5;endSize=5;strokeColor=#000000;spacingTop=0;spacingBottom=0;spacingLeft=0;spacingRight=0;verticalAlign=middle;html=1;labelBackgroundColor=#ffffff;rounded=1;exitX=1;exitY=0.5135135135135135;exitDx=0;exitDy=0;exitPerimeter=0;entryX=0;entryY=0.5135135135135135;entryDx=0;entryDy=0;entryPerimeter=0;" parent="1" source="4" target="13" edge="1">
            <mxGeometry relative="1" as="geometry">
              <mxPoint x="-10" as="offset" />
              <Array as="points">
                <mxPoint x="463.73" y="84" />
                <mxPoint x="463.73" y="206.58" />
              </Array>
            </mxGeometry>
          </mxCell>
        </UserObject>
        <UserObject label="" tags="Lien" id="70">
          <mxCell style="vsdxID=90;edgeStyle=none;startArrow=none;endArrow=block;startSize=5;endSize=5;strokeColor=#000000;spacingTop=0;spacingBottom=0;spacingLeft=0;spacingRight=0;verticalAlign=middle;html=1;labelBackgroundColor=#ffffff;rounded=1;exitX=1;exitY=0.5135135135135135;exitDx=0;exitDy=0;exitPerimeter=0;entryX=0;entryY=0.5135135135135135;entryDx=0;entryDy=0;entryPerimeter=0;" parent="1" source="4" target="14" edge="1">
            <mxGeometry relative="1" as="geometry">
              <mxPoint x="-8" as="offset" />
              <Array as="points">
                <mxPoint x="595.52" y="84" />
                <mxPoint x="595.52" y="161.71" />
              </Array>
            </mxGeometry>
          </mxCell>
        </UserObject>
        <UserObject label="" tags="Lien" id="71">
          <mxCell style="vsdxID=93;edgeStyle=none;startArrow=none;endArrow=block;startSize=5;endSize=5;strokeColor=#000000;spacingTop=0;spacingBottom=0;spacingLeft=0;spacingRight=0;verticalAlign=middle;html=1;labelBackgroundColor=#ffffff;rounded=1;exitX=1;exitY=0.5135135135135135;exitDx=0;exitDy=0;exitPerimeter=0;entryX=0;entryY=0.5135135135135135;entryDx=0;entryDy=0;entryPerimeter=0;" parent="1" source="5" target="39" edge="1">
            <mxGeometry relative="1" as="geometry">
              <mxPoint x="8" as="offset" />
              <Array as="points">
                <mxPoint x="570.28" y="160" />
                <mxPoint x="570.28" y="84.66" />
              </Array>
            </mxGeometry>
          </mxCell>
        </UserObject>
        <UserObject label="" tags="Lien" id="72">
          <mxCell style="vsdxID=94;edgeStyle=none;startArrow=none;endArrow=block;startSize=5;endSize=5;strokeColor=#000000;spacingTop=0;spacingBottom=0;spacingLeft=0;spacingRight=0;verticalAlign=middle;html=1;labelBackgroundColor=#ffffff;rounded=1;exitX=1;exitY=0.5135135135135135;exitDx=0;exitDy=0;exitPerimeter=0;entryX=0;entryY=0.5135135135135135;entryDx=0;entryDy=0;entryPerimeter=0;" parent="1" source="13" target="39" edge="1">
            <mxGeometry relative="1" as="geometry">
              <mxPoint x="9" as="offset" />
              <Array as="points">
                <mxPoint x="570.28" y="207" />
                <mxPoint x="570.28" y="84.42" />
              </Array>
            </mxGeometry>
          </mxCell>
        </UserObject>
        <UserObject label="" tags="Lien" id="73">
          <mxCell style="vsdxID=97;edgeStyle=none;startArrow=none;endArrow=block;startSize=5;endSize=5;strokeColor=#000000;spacingTop=0;spacingBottom=0;spacingLeft=0;spacingRight=0;verticalAlign=middle;html=1;labelBackgroundColor=#ffffff;rounded=1;exitX=1;exitY=0.5135135135135135;exitDx=0;exitDy=0;exitPerimeter=0;entryX=0;entryY=0.5135135135135135;entryDx=0;entryDy=0;entryPerimeter=0;" parent="1" source="18" target="17" edge="1">
            <mxGeometry relative="1" as="geometry">
              <mxPoint as="offset" />
              <Array as="points" />
            </mxGeometry>
          </mxCell>
        </UserObject>
        <UserObject label="" tags="Lien" id="74">
          <mxCell style="vsdxID=98;edgeStyle=none;startArrow=none;endArrow=block;startSize=5;endSize=5;strokeColor=#000000;spacingTop=0;spacingBottom=0;spacingLeft=0;spacingRight=0;verticalAlign=middle;html=1;labelBackgroundColor=#ffffff;rounded=1;exitX=1;exitY=0.5135135135135135;exitDx=0;exitDy=0;exitPerimeter=0;entryX=0;entryY=0.5135135135135135;entryDx=0;entryDy=0;entryPerimeter=0;" parent="1" source="17" target="17" edge="1">
            <mxGeometry relative="1" as="geometry">
              <mxPoint x="-1" as="offset" />
              <Array as="points">
                <mxPoint x="268.68" y="254" />
                <mxPoint x="268.68" y="220.25" />
                <mxPoint x="190.86" y="220.25" />
                <mxPoint x="190.86" y="254" />
              </Array>
            </mxGeometry>
          </mxCell>
        </UserObject>
        <UserObject label="" tags="Lien" id="75">
          <mxCell style="vsdxID=102;edgeStyle=none;startArrow=none;endArrow=block;startSize=5;endSize=5;strokeColor=#000000;spacingTop=0;spacingBottom=0;spacingLeft=0;spacingRight=0;verticalAlign=middle;html=1;labelBackgroundColor=#ffffff;rounded=0;exitX=1.0588235294117647;exitY=0.5294117647058824;exitDx=0;exitDy=0;exitPerimeter=0;entryX=0;entryY=0.5135135135135135;entryDx=0;entryDy=0;entryPerimeter=0;" parent="1" source="19" target="18" edge="1">
            <mxGeometry relative="1" as="geometry">
              <mxPoint as="offset" />
              <Array as="points" />
            </mxGeometry>
          </mxCell>
        </UserObject>
        <UserObject label="" tags="Lien" id="76">
          <mxCell style="vsdxID=103;edgeStyle=none;startArrow=none;endArrow=block;startSize=5;endSize=5;strokeColor=#000000;spacingTop=0;spacingBottom=0;spacingLeft=0;spacingRight=0;verticalAlign=middle;html=1;labelBackgroundColor=#ffffff;rounded=0;exitX=1;exitY=0.5135135135135135;exitDx=0;exitDy=0;exitPerimeter=0;entryX=0;entryY=0.5294117647058824;entryDx=0;entryDy=0;entryPerimeter=0;" parent="1" source="17" target="20" edge="1">
            <mxGeometry relative="1" as="geometry">
              <mxPoint as="offset" />
              <Array as="points" />
            </mxGeometry>
          </mxCell>
        </UserObject>
        <UserObject label="" tags="Lien" id="77">
          <mxCell style="vsdxID=105;edgeStyle=none;startArrow=none;endArrow=block;startSize=5;endSize=5;strokeColor=#000000;spacingTop=0;spacingBottom=0;spacingLeft=0;spacingRight=0;verticalAlign=middle;html=1;labelBackgroundColor=#ffffff;rounded=0;exitX=1;exitY=0.5135135135135135;exitDx=0;exitDy=0;exitPerimeter=0;entryX=0;entryY=0.5135135135135135;entryDx=0;entryDy=0;entryPerimeter=0;" parent="1" source="14" target="15" edge="1">
            <mxGeometry relative="1" as="geometry">
              <mxPoint x="-1" as="offset" />
              <Array as="points">
                <mxPoint x="675" y="162" />
                <mxPoint x="675" y="161.79" />
              </Array>
            </mxGeometry>
          </mxCell>
        </UserObject>
        <UserObject label="" tags="Lien" id="78">
          <mxCell style="vsdxID=106;edgeStyle=none;startArrow=none;endArrow=block;startSize=5;endSize=5;strokeColor=#000000;spacingTop=0;spacingBottom=0;spacingLeft=0;spacingRight=0;verticalAlign=middle;html=1;labelBackgroundColor=#ffffff;rounded=1;exitX=1;exitY=0.5135135135135135;exitDx=0;exitDy=0;exitPerimeter=0;entryX=0;entryY=0.5135135135135135;entryDx=0;entryDy=0;entryPerimeter=0;" parent="1" source="14" target="16" edge="1">
            <mxGeometry relative="1" as="geometry">
              <mxPoint y="-1" as="offset" />
              <Array as="points">
                <mxPoint x="675" y="162" />
                <mxPoint x="675" y="209.02" />
              </Array>
            </mxGeometry>
          </mxCell>
        </UserObject>
        <UserObject label="" tags="Lien" id="79">
          <mxCell style="vsdxID=107;edgeStyle=none;startArrow=none;endArrow=block;startSize=5;endSize=5;strokeColor=#000000;spacingTop=0;spacingBottom=0;spacingLeft=0;spacingRight=0;verticalAlign=middle;html=1;labelBackgroundColor=#ffffff;rounded=1;exitX=1;exitY=0.5135135135135135;exitDx=0;exitDy=0;exitPerimeter=0;entryX=0;entryY=0.5135135135135135;entryDx=0;entryDy=0;entryPerimeter=0;" parent="1" source="15" target="39" edge="1">
            <mxGeometry relative="1" as="geometry">
              <mxPoint x="8" as="offset" />
              <Array as="points">
                <mxPoint x="762.9" y="162" />
                <mxPoint x="762.9" y="84.5" />
              </Array>
            </mxGeometry>
          </mxCell>
        </UserObject>
        <UserObject label="" tags="Lien" id="80">
          <mxCell style="vsdxID=108;edgeStyle=none;startArrow=none;endArrow=block;startSize=5;endSize=5;strokeColor=#000000;spacingTop=0;spacingBottom=0;spacingLeft=0;spacingRight=0;verticalAlign=middle;html=1;labelBackgroundColor=#ffffff;rounded=1;exitX=1;exitY=0.5135135135135135;exitDx=0;exitDy=0;exitPerimeter=0;entryX=0;entryY=0.5135135135135135;entryDx=0;entryDy=0;entryPerimeter=0;" parent="1" source="16" target="39" edge="1">
            <mxGeometry relative="1" as="geometry">
              <mxPoint x="8" as="offset" />
              <Array as="points">
                <mxPoint x="763.48" y="209" />
                <mxPoint x="763.48" y="84.26" />
              </Array>
            </mxGeometry>
          </mxCell>
        </UserObject>
        <UserObject label="" tags="Lien" id="81">
          <mxCell style="vsdxID=118;edgeStyle=none;startArrow=none;endArrow=block;startSize=5;endSize=5;strokeColor=#000000;spacingTop=0;spacingBottom=0;spacingLeft=0;spacingRight=0;verticalAlign=middle;html=1;labelBackgroundColor=#ffffff;rounded=1;exitX=1;exitY=0.5135135135135135;exitDx=0;exitDy=0;exitPerimeter=0;entryX=0;entryY=0.5135135135135135;entryDx=0;entryDy=0;entryPerimeter=0;" parent="1" source="4" target="22" edge="1">
            <mxGeometry relative="1" as="geometry">
              <mxPoint x="-8" as="offset" />
              <Array as="points">
                <mxPoint x="802.61" y="84" />
                <mxPoint x="802.61" y="156.98" />
              </Array>
            </mxGeometry>
          </mxCell>
        </UserObject>
        <UserObject label="" tags="Lien" id="82">
          <mxCell style="vsdxID=119;edgeStyle=none;startArrow=none;endArrow=block;startSize=5;endSize=5;strokeColor=#000000;spacingTop=0;spacingBottom=0;spacingLeft=0;spacingRight=0;verticalAlign=middle;html=1;labelBackgroundColor=#ffffff;rounded=1;exitX=1;exitY=0.5135135135135135;exitDx=0;exitDy=0;exitPerimeter=0;entryX=0;entryY=0.5135135135135135;entryDx=0;entryDy=0;entryPerimeter=0;" parent="1" source="4" target="23" edge="1">
            <mxGeometry relative="1" as="geometry">
              <mxPoint x="-9" as="offset" />
              <Array as="points">
                <mxPoint x="802.61" y="84" />
                <mxPoint x="802.61" y="202.61" />
              </Array>
            </mxGeometry>
          </mxCell>
        </UserObject>
        <UserObject label="" tags="Lien" id="83">
          <mxCell style="vsdxID=120;edgeStyle=none;startArrow=none;endArrow=block;startSize=5;endSize=5;strokeColor=#000000;spacingTop=0;spacingBottom=0;spacingLeft=0;spacingRight=0;verticalAlign=middle;html=1;labelBackgroundColor=#ffffff;rounded=1;exitX=1;exitY=0.5135135135135135;exitDx=0;exitDy=0;exitPerimeter=0;entryX=0;entryY=0.4864864864864865;entryDx=0;entryDy=0;entryPerimeter=0;" parent="1" source="4" target="26" edge="1">
            <mxGeometry relative="1" as="geometry">
              <mxPoint x="-9" as="offset" />
              <Array as="points">
                <mxPoint x="802.61" y="84" />
                <mxPoint x="802.61" y="248.23000000000002" />
              </Array>
            </mxGeometry>
          </mxCell>
        </UserObject>
        <UserObject label="" tags="Lien" id="84">
          <mxCell style="vsdxID=121;edgeStyle=none;startArrow=none;endArrow=block;startSize=5;endSize=5;strokeColor=#000000;spacingTop=0;spacingBottom=0;spacingLeft=0;spacingRight=0;verticalAlign=middle;html=1;labelBackgroundColor=#ffffff;rounded=1;exitX=1;exitY=0.5135135135135135;exitDx=0;exitDy=0;exitPerimeter=0;entryX=0;entryY=0.5135135135135135;entryDx=0;entryDy=0;entryPerimeter=0;" parent="1" source="4" target="24" edge="1">
            <mxGeometry relative="1" as="geometry">
              <mxPoint x="-9" as="offset" />
              <Array as="points">
                <mxPoint x="802.61" y="84" />
                <mxPoint x="802.61" y="293.86" />
              </Array>
            </mxGeometry>
          </mxCell>
        </UserObject>
        <UserObject label="" tags="Lien" id="85">
          <mxCell style="vsdxID=122;edgeStyle=none;startArrow=none;endArrow=block;startSize=5;endSize=5;strokeColor=#000000;spacingTop=0;spacingBottom=0;spacingLeft=0;spacingRight=0;verticalAlign=middle;html=1;labelBackgroundColor=#ffffff;rounded=1;exitX=1;exitY=0.5135135135135135;exitDx=0;exitDy=0;exitPerimeter=0;entryX=0;entryY=0.5135135135135135;entryDx=0;entryDy=0;entryPerimeter=0;" parent="1" source="4" target="25" edge="1">
            <mxGeometry relative="1" as="geometry">
              <mxPoint x="-9" as="offset" />
              <Array as="points">
                <mxPoint x="802.61" y="84" />
                <mxPoint x="802.61" y="339.48" />
              </Array>
            </mxGeometry>
          </mxCell>
        </UserObject>
        <UserObject label="" tags="Lien" id="86">
          <mxCell style="vsdxID=123;edgeStyle=none;startArrow=none;endArrow=block;startSize=5;endSize=5;strokeColor=#000000;spacingTop=0;spacingBottom=0;spacingLeft=0;spacingRight=0;verticalAlign=middle;html=1;labelBackgroundColor=#ffffff;rounded=1;exitX=1;exitY=0.5135135135135135;exitDx=0;exitDy=0;exitPerimeter=0;entryX=0;entryY=0.4864864864864865;entryDx=0;entryDy=0;entryPerimeter=0;" parent="1" source="4" target="27" edge="1">
            <mxGeometry relative="1" as="geometry">
              <mxPoint x="-9" as="offset" />
              <Array as="points">
                <mxPoint x="802.61" y="84" />
                <mxPoint x="802.61" y="385.11" />
              </Array>
            </mxGeometry>
          </mxCell>
        </UserObject>
      </root>
    </mxGraphModel>
  </diagram>
</mxfile>
